<?xml version="1.0" encoding="UTF-8"?>
<svg version="1.1" xmlns="http://www.w3.org/2000/svg" width="591" height="484">
<path d="M0 0 C1.47988655 -0.01058945 1.47988655 -0.01058945 2.9896698 -0.02139282 C43.75758261 -0.24695862 43.75758261 -0.24695862 61.3671875 3.203125 C62.3876416 3.39116699 63.4080957 3.57920898 64.45947266 3.77294922 C90.04692264 8.57417696 115.03092789 16.62965551 138.3671875 28.203125 C139.13998047 28.57872559 139.91277344 28.95432617 140.70898438 29.34130859 C170.85916574 44.08596925 202.12449329 66.27487295 223.76171875 92.29296875 C224.886725 93.63147983 226.05531412 94.93399241 227.25390625 96.20703125 C238.00268371 107.63133261 247.19396505 120.6209549 255.8046875 133.703125 C256.27116699 134.40252197 256.73764648 135.10191895 257.21826172 135.82250977 C259.45934713 139.30648856 260.3671875 140.9578681 260.3671875 145.203125 C254.7571875 147.843125 249.1471875 150.483125 243.3671875 153.203125 C242.36300781 151.65625 241.35882812 150.109375 240.32421875 148.515625 C232.26874437 136.20609154 224.05948173 124.29192957 214.3671875 113.203125 C213.90538086 112.67364258 213.44357422 112.14416016 212.96777344 111.59863281 C209.84987374 108.05485178 206.6396352 104.60470579 203.3671875 101.203125 C202.8191748 100.63319824 202.27116211 100.06327148 201.70654297 99.47607422 C194.32465903 91.84696001 186.82028082 84.65361516 178.3671875 78.203125 C177.39217285 77.44612305 177.39217285 77.44612305 176.39746094 76.67382812 C120.21981164 33.20272614 50.83043867 14.2502109 -19.6328125 22.203125 C-68.48611578 28.56319703 -114.39748227 48.14364044 -152.6328125 79.203125 C-153.22046387 79.67508301 -153.80811523 80.14704102 -154.41357422 80.63330078 C-169.11867614 92.51709935 -183.28481903 106.05245294 -194.6328125 121.203125 C-195.69392386 122.57428574 -196.75513049 123.94537275 -197.81640625 125.31640625 C-227.36101235 163.95577007 -245.35447158 209.25705422 -252.6328125 257.203125 C-252.75140625 257.96463867 -252.87 258.72615234 -252.9921875 259.51074219 C-261.70036529 318.31685949 -249.26297602 387.47179696 -216.59375 437.55859375 C-215.6328125 439.203125 -215.6328125 439.203125 -215.6328125 441.203125 C-211.71239505 438.96185693 -208.19428644 436.41412283 -204.6328125 433.640625 C-203.476618 432.74341806 -202.32036639 431.8462847 -201.1640625 430.94921875 C-200.28427734 430.26448486 -200.28427734 430.26448486 -199.38671875 429.56591797 C-196.64351791 427.43443869 -193.88785082 425.31926537 -191.1328125 423.203125 C-190.04291431 422.36465409 -188.95307061 421.52611235 -187.86328125 420.6875 C-185.76272742 419.0715924 -183.66098266 417.45727338 -181.55859375 415.84375 C-175.0672301 410.85916461 -168.59432637 405.85135737 -162.1328125 400.828125 C-161.36686768 400.23290039 -160.60092285 399.63767578 -159.81176758 399.02441406 C-159.0823999 398.4569043 -158.35303223 397.88939453 -157.6015625 397.3046875 C-156.91320312 396.77004883 -156.22484375 396.23541016 -155.515625 395.68457031 C-153.89842898 394.41211888 -152.30948305 393.1039078 -150.7265625 391.7890625 C-148.6328125 390.203125 -148.6328125 390.203125 -146.6328125 390.203125 C-146.6328125 313.313125 -146.6328125 236.423125 -146.6328125 157.203125 C-132.1128125 157.203125 -117.5928125 157.203125 -102.6328125 157.203125 C-102.3028125 222.213125 -101.9728125 287.223125 -101.6328125 354.203125 C-96.0228125 349.913125 -90.4128125 345.623125 -84.6328125 341.203125 C-82.49483688 339.91962158 -80.35686127 338.63611816 -78.15409851 337.3137207 C-75.00787515 335.02161254 -73.83276448 333.84587484 -72.66858864 330.10360718 C-72.23651835 326.18642152 -72.20365051 322.36378109 -72.29223633 318.43359375 C-72.2854681 316.94471909 -72.27386298 315.4558598 -72.2578125 313.96705627 C-72.22803893 309.943776 -72.26556336 305.92365418 -72.31555009 301.90068054 C-72.35630428 297.68989951 -72.33465983 293.47944023 -72.31974792 289.26855469 C-72.30096353 281.30326771 -72.3379688 273.33926466 -72.39522046 265.37420082 C-72.45769305 256.30279273 -72.45766661 247.2317177 -72.45249522 238.16013527 C-72.44325657 219.50713111 -72.52041091 200.85582014 -72.6328125 182.203125 C-58.1128125 182.203125 -43.5928125 182.203125 -28.6328125 182.203125 C-28.3028125 220.153125 -27.9728125 258.103125 -27.6328125 297.203125 C-12.24849943 288.4235499 -12.24849943 288.4235499 -10.79103088 278.31257629 C-10.58425866 275.95582727 -10.58425866 275.95582727 -10.70304871 273.85569763 C-10.72426977 273.08027052 -10.74549084 272.30484341 -10.76735497 271.5059185 C-10.80239097 270.30186458 -10.80239097 270.30186458 -10.83813477 269.07348633 C-10.83249369 267.36741865 -10.82024521 265.66136211 -10.80194092 263.9553833 C-10.77107425 259.35291157 -10.83189473 254.75579814 -10.90997434 250.15405869 C-10.97589849 245.33477482 -10.95643929 240.51582855 -10.9462738 235.69621277 C-10.93990528 226.58310383 -11.00964089 217.47225171 -11.1071443 208.35972661 C-11.21446965 197.98002304 -11.23631557 187.60068034 -11.2512008 177.22049677 C-11.28370682 155.88008355 -11.43412139 134.54268264 -11.6328125 113.203125 C2.8871875 113.203125 17.4071875 113.203125 32.3671875 113.203125 C32.6971875 158.413125 33.0271875 203.623125 33.3671875 250.203125 C42.68965357 243.22164025 42.68965357 243.22164025 51.9296875 236.140625 C57.65863501 231.70953974 63.48205603 227.42532353 69.3671875 223.203125 C73.87854657 227.34824828 77.11178491 231.98947264 80.4921875 237.078125 C84.49227116 243.01462694 88.53292232 248.89611185 92.8046875 254.640625 C97.79065831 261.35016408 102.5842156 268.18547064 107.33374023 275.06420898 C111.16846295 280.59007965 115.18591568 285.93472251 119.3671875 291.203125 C120.69169922 290.06037109 120.69169922 290.06037109 122.04296875 288.89453125 C129.4016648 282.55836307 136.82534774 276.3211366 144.3671875 270.203125 C146.22181461 268.6828532 148.07597864 267.16201631 149.9296875 265.640625 C155.0438974 261.4549316 160.19685072 257.31920656 165.3671875 253.203125 C163.95329938 250.17141025 162.28221868 247.58293073 160.28515625 244.90234375 C159.68251953 244.08958984 159.07988281 243.27683594 158.45898438 242.43945312 C157.83056641 241.59833984 157.20214844 240.75722656 156.5546875 239.890625 C155.31853738 238.22821622 154.08285253 236.56546137 152.84765625 234.90234375 C152.25774902 234.10876465 151.6678418 233.31518555 151.06005859 232.49755859 C148.79274472 229.42455372 146.5749045 226.31915985 144.3671875 223.203125 C146.66438211 220.90593039 148.67886974 220.00928315 151.6328125 218.65625 C153.28579346 217.89453491 153.28579346 217.89453491 154.97216797 217.11743164 C155.86038239 216.71187546 155.86038239 216.71187546 156.76654053 216.29812622 C158.64840946 215.43886912 160.52786487 214.57452621 162.40673828 213.70874023 C164.38414074 212.79764989 166.36169925 211.88691436 168.33999634 210.97776794 C174.70026143 208.05466816 181.04444708 205.09766463 187.38562012 202.13342285 C189.89054601 200.96256887 192.39603017 199.79291194 194.90148926 198.62319946 C196.79603867 197.73867172 198.69050686 196.8539702 200.58496094 195.96923828 C206.22083782 193.33738154 211.85755067 190.70731621 217.49420166 188.07711792 C220.61856462 186.61919387 223.74287331 185.16115354 226.8671875 183.703125 C228.11718724 183.11979111 229.36718724 182.53645778 230.6171875 181.953125 C231.2359375 181.664375 231.8546875 181.375625 232.4921875 181.078125 C234.3671875 180.203125 236.2421875 179.328125 238.1171875 178.453125 C238.73588211 178.16440018 239.35457672 177.87567535 239.99201965 177.57820129 C241.24257706 176.99460919 242.49313655 176.41102155 243.74369812 175.82743835 C246.86018678 174.37310064 249.97663977 172.91868658 253.09301758 171.46411133 C258.81941598 168.7913984 264.5461092 166.11932474 270.27409363 163.45001221 C272.89221584 162.22986705 275.51011494 161.00924356 278.12802124 159.78863525 C280.02886409 158.90266117 281.93007349 158.01747716 283.83129883 157.13232422 C289.35690367 154.5576274 294.87488341 151.96938207 300.3671875 149.32421875 C301.25575439 148.89729736 302.14432129 148.47037598 303.05981445 148.03051758 C304.66764797 147.25562962 306.2731532 146.47588258 307.87573242 145.69018555 C313.03672857 143.203125 313.03672857 143.203125 316.3671875 143.203125 C314.73234585 146.88591344 312.45932074 149.84188564 309.9921875 153.015625 C309.33343628 153.86495605 309.33343628 153.86495605 308.66137695 154.73144531 C304.83955602 159.64128859 300.94097048 164.48901323 297.03930664 169.33544922 C293.25906475 174.04681176 289.58044614 178.82848555 285.9296875 183.640625 C281.15731345 189.92782364 276.24890235 196.08154886 271.24243164 202.18334961 C267.34802674 206.9482479 263.58363307 211.7984889 259.8671875 216.703125 C255.11731401 222.97158785 250.23065794 229.1038954 245.2421875 235.18359375 C241.34791982 239.94845493 237.5835639 244.79858018 233.8671875 249.703125 C229.12436866 255.96227774 224.24991584 262.08983024 219.26196289 268.1550293 C214.57153466 273.88413874 210.08725332 279.75983003 205.6796875 285.70898438 C205.17308594 286.38380859 204.66648437 287.05863281 204.14453125 287.75390625 C203.70359131 288.34856689 203.26265137 288.94322754 202.80834961 289.5559082 C201.17456383 291.42328965 199.39200688 292.77917436 197.3671875 294.203125 C182.30392728 274.98349723 182.30392728 274.98349723 175.3671875 265.203125 C172.54234894 266.51541803 170.24371062 267.97420339 167.85546875 269.96875 C167.18854004 270.52216064 166.52161133 271.07557129 165.83447266 271.64575195 C165.12339355 272.24218506 164.41231445 272.83861816 163.6796875 273.453125 C162.15242748 274.72275698 160.62508124 275.99228524 159.09765625 277.26171875 C158.31567871 277.91382324 157.53370117 278.56592773 156.72802734 279.23779297 C152.9950679 282.34537555 149.24348598 285.43022748 145.4921875 288.515625 C144.07810499 289.67966319 142.66404191 290.84372499 141.25 292.0078125 C140.58774414 292.55276367 139.92548828 293.09771484 139.24316406 293.65917969 C138.06254278 294.63084145 136.88216846 295.60280345 135.70214844 296.57519531 C132.60060882 299.13045227 129.48604131 301.66905628 126.3671875 304.203125 C125.5215625 304.90824219 124.6759375 305.61335938 123.8046875 306.33984375 C123.0003125 306.99597656 122.1959375 307.65210938 121.3671875 308.328125 C120.6659375 308.90820312 119.9646875 309.48828125 119.2421875 310.0859375 C118.6234375 310.45460938 118.0046875 310.82328125 117.3671875 311.203125 C114.09493338 310.11237363 113.72545072 309.68823629 111.87109375 306.984375 C111.16641968 305.97032593 111.16641968 305.97032593 110.44750977 304.93579102 C109.94662842 304.19901123 109.44574707 303.46223145 108.9296875 302.703125 C107.84651904 301.13920871 106.76318111 299.57540979 105.6796875 298.01171875 C105.12796875 297.20976074 104.57625 296.40780273 104.0078125 295.58154297 C101.50805362 291.95763656 98.9703508 288.3609192 96.4296875 284.765625 C95.69431763 283.72281372 95.69431763 283.72281372 94.9440918 282.65893555 C90.7090484 276.66244437 86.41604837 270.70869025 82.11083984 264.76245117 C77.16512574 257.93147474 72.2595816 251.07235554 67.3671875 244.203125 C63.21965937 245.99552409 59.81535784 248.73823113 56.2421875 251.453125 C55.54569092 251.97890137 54.84919434 252.50467773 54.1315918 253.04638672 C47.24613688 258.26076322 40.43292374 263.56787388 33.625 268.8828125 C27.89666623 273.35464149 22.13215905 277.77867416 16.3671875 282.203125 C14.20007903 283.86921753 12.03361411 285.53614598 9.8671875 287.203125 C6.67700145 289.65784615 3.48622233 292.11176917 0.29296875 294.5625 C-5.95068752 299.35687595 -12.17319317 304.17723588 -18.3828125 309.015625 C-26.4503633 315.30007441 -34.56598528 321.51958438 -42.69580078 327.72314453 C-47.68565575 331.53566039 -52.65751618 335.3716468 -57.6328125 339.203125 C-59.79925901 340.87007792 -61.96603747 342.53659913 -64.1328125 344.203125 C-65.21615188 345.03645047 -66.29948522 345.8697838 -67.3828125 346.703125 C-108.54947917 378.36979167 -149.71614583 410.03645833 -190.8828125 441.703125 C-191.4195459 442.11602783 -191.9562793 442.52893066 -192.50927734 442.9543457 C-193.58760676 443.7837675 -194.66605639 444.61303302 -195.74462891 445.44213867 C-198.53055195 447.58402236 -201.31404083 449.72896274 -204.09375 451.87890625 C-209.53877781 456.08639265 -214.9878188 460.2647573 -220.6328125 464.203125 C-225.08188455 462.72010098 -227.37860642 459.12026999 -229.6328125 455.203125 C-229.6328125 454.543125 -229.6328125 453.883125 -229.6328125 453.203125 C-230.2928125 453.203125 -230.9528125 453.203125 -231.6328125 453.203125 C-256.67168484 409.69740538 -274.61769366 360.68471698 -274.8359375 309.9140625 C-274.84163757 308.85313385 -274.84733765 307.7922052 -274.85321045 306.6991272 C-274.86260913 304.45860778 -274.86917387 302.21807485 -274.87304688 299.97753906 C-274.8826468 296.63580401 -274.91367616 293.29471346 -274.9453125 289.953125 C-275.01856414 275.15123227 -273.90202183 260.82751004 -271.6328125 246.203125 C-271.52628357 245.50201599 -271.41975464 244.80090698 -271.30999756 244.07855225 C-262.63932609 188.08505786 -236.16755846 134.23145733 -197.32421875 93.08203125 C-195.24286785 90.85568058 -193.26502137 88.60822827 -191.3203125 86.265625 C-181.75999307 75.26661672 -170.28339665 65.88720195 -158.6328125 57.203125 C-158.07803223 56.78611328 -157.52325195 56.36910156 -156.95166016 55.93945312 C-112.47394579 22.68169295 -56.02372082 0.26736376 0 0 Z " fill="#030372" transform="translate(274.6328125,-0.203125)"/>
<path d="M0 0 C7.5843685 9.44176487 14.83672101 19.08773583 21.90014648 28.92260742 C26.46223391 35.2715622 31.08628591 41.572501 35.74438477 47.85131836 C38.76732564 51.9348066 41.74771156 56.04152493 44.66796875 60.19921875 C45.25900391 61.03582031 45.85003906 61.87242187 46.45898438 62.734375 C47.58975913 64.33918076 48.71251286 65.94967601 49.82617188 67.56640625 C50.33083984 68.28054688 50.83550781 68.9946875 51.35546875 69.73046875 C52.01518677 70.68022583 52.01518677 70.68022583 52.68823242 71.64916992 C53.12111572 72.09494385 53.55399902 72.54071777 54 73 C58.16461601 73 60.21739851 70.76551194 63.3125 68.25 C63.92770508 67.75846436 64.54291016 67.26692871 65.17675781 66.76049805 C70.21586851 62.70576878 75.13160908 58.51112406 80.02197266 54.27905273 C84.12811164 50.72800077 88.31039788 47.2957184 92.5703125 43.9296875 C95.2587799 41.79447384 97.91124897 39.61872314 100.5625 37.4375 C105.31160089 33.54080183 110.12782489 29.74134928 115 26 C118.12215428 27.35727511 119.93163119 28.78281963 122.06640625 31.421875 C122.91078247 32.45622681 122.91078247 32.45622681 123.7722168 33.51147461 C124.36301025 34.25018799 124.95380371 34.98890137 125.5625 35.75 C126.17585205 36.50482666 126.7892041 37.25965332 127.42114258 38.03735352 C130.40295255 41.71949267 133.34626129 45.43006932 136.2578125 49.16796875 C136.75466553 49.80573242 137.25151855 50.44349609 137.76342773 51.10058594 C138.69256771 52.2990857 139.61680598 53.50140635 140.53540039 54.70800781 C142.56820219 57.34579606 144.19681847 59.13121232 147 61 C150.29312827 57.7318517 153.58275765 54.46023304 156.86938477 51.18554688 C157.9846729 50.07524416 159.10086211 48.96584571 160.21801758 47.85742188 C165.7665369 42.35114386 171.23526651 36.85927662 176.31176758 30.90869141 C179.70626488 27.07092135 183.41083621 23.52825197 187.0625 19.9375 C193.47115788 13.64755158 193.47115788 13.64755158 199.43359375 6.94140625 C200.28050781 5.97074219 201.12742187 5.00007813 202 4 C202.66 4 203.32 4 204 4 C205.79260387 14.58756224 206.95950786 25.16049213 207.625 35.875 C207.67464905 36.66863575 207.7242981 37.4622715 207.77545166 38.27995682 C208.89779617 58.62029023 206.65949071 74.7821514 192.98151779 90.52992249 C187.29112506 96.8309175 181.27197398 102.71887818 175 108.4375 C174.30644661 109.07027611 173.61289322 109.70305222 172.89832306 110.35500336 C164.19892224 118.23841996 155.24303307 125.76251499 146 133 C142.0700018 129.95358789 139.0446455 126.76773119 136.0625 122.8125 C131.6208996 117.03989923 127.07225019 111.36880409 122.4375 105.75 C121.5259314 104.64168823 121.5259314 104.64168823 120.59594727 103.51098633 C117.41677589 99.64864517 117.41677589 99.64864517 114 96 C113.00033203 96.81791016 113.00033203 96.81791016 111.98046875 97.65234375 C111.05878906 98.40644531 110.13710938 99.16054688 109.1875 99.9375 C108.17300781 100.76765625 107.15851563 101.5978125 106.11328125 102.453125 C104.21544754 104.00595111 102.31698049 105.55798871 100.41796875 107.109375 C94.76790834 111.72662867 89.13136503 116.3599725 83.5 121 C70.67657842 131.56402333 70.67657842 131.56402333 66.50390625 134.953125 C64.72731936 136.40543628 62.96571789 137.87616605 61.21484375 139.359375 C60.31894531 140.10703125 59.42304688 140.8546875 58.5 141.625 C57.7059375 142.29789063 56.911875 142.97078125 56.09375 143.6640625 C55.4028125 144.10492188 54.711875 144.54578125 54 145 C50.68399754 143.89466585 50.27622505 143.3751416 48.35546875 140.6328125 C47.85080078 139.92189453 47.34613281 139.21097656 46.82617188 138.47851562 C46.0150293 137.31352539 46.0150293 137.31352539 45.1875 136.125 C44.01529368 134.47066589 42.84208386 132.81704245 41.66796875 131.1640625 C41.06259277 130.30844727 40.4572168 129.45283203 39.83349609 128.57128906 C36.93825773 124.51101604 33.96915326 120.50636306 31 116.5 C24.82781037 108.14773288 18.73331527 99.74164539 12.66601562 91.31298828 C9.67747396 87.16389044 6.68199514 83.01980196 3.6875 78.875 C2.58721118 77.35158301 1.48694801 75.8281475 0.38671875 74.3046875 C-0.07516846 73.66515137 -0.53705566 73.02561523 -1.01293945 72.36669922 C-1.33866943 71.91568848 -1.66439941 71.46467773 -2 71 C-6.34127867 73.8179083 -10.45041196 76.83765643 -14.5 80.0625 C-15.73953605 81.04302852 -16.97912076 82.02349554 -18.21875 83.00390625 C-18.84652344 83.50164551 -19.47429687 83.99938477 -20.12109375 84.51220703 C-23.0738107 86.85028617 -26.03717655 89.17475144 -29 91.5 C-30.16672321 92.4165947 -31.33338975 93.33326154 -32.5 94.25 C-39.5 99.75 -39.5 99.75 -41.24975586 101.12475586 C-42.4173041 102.04215009 -43.58478449 102.95963067 -44.75219727 103.87719727 C-47.6548279 106.15844245 -50.55859274 108.43821214 -53.46484375 110.71484375 C-58.81695098 114.91000342 -64.15642325 119.1182858 -69.45507812 123.38085938 C-75.38671351 128.15236418 -81.37334995 132.83539728 -87.4375 137.4375 C-93.72461783 142.20998428 -99.87841971 147.11828174 -105.98022461 152.12475586 C-110.74512349 156.01916125 -115.59537163 159.78354299 -120.5 163.5 C-126.86035621 168.31970751 -133.08661094 173.27676832 -139.25952148 178.33374023 C-143.31025012 181.64587448 -147.40123623 184.89045737 -151.5625 188.0625 C-156.98536965 192.19710087 -162.32164088 196.42863359 -167.62524414 200.71508789 C-168.77925937 201.64489263 -169.94395934 202.5616346 -171.12030029 203.46302795 C-173.00202576 204.92207709 -173.00202576 204.92207709 -174.41325378 206.57113647 C-179.70028426 211.80313024 -185.34687221 211.65513822 -192.35983562 211.69608116 C-195.10505239 211.67924791 -197.84889993 211.63307167 -200.59375 211.5859375 C-202.5104438 211.57473528 -204.42715489 211.56619994 -206.34387207 211.56021118 C-211.36828744 211.53739352 -216.3916483 211.47853169 -221.41564941 211.4119873 C-226.55039203 211.35041185 -231.68530643 211.32316366 -236.8203125 211.29296875 C-246.88066953 211.22878119 -256.94024679 211.12648787 -267 211 C-264.23594794 208.21945316 -261.51631023 205.48845742 -258.46875 203.01953125 C-257.5104126 202.24101807 -257.5104126 202.24101807 -256.53271484 201.44677734 C-255.86191895 200.90746582 -255.19112305 200.3681543 -254.5 199.8125 C-253.44159912 198.95712646 -253.44159912 198.95712646 -252.36181641 198.08447266 C-247.03618019 193.79587716 -241.64218304 189.60543933 -236.20703125 185.45703125 C-231.01404178 181.49080767 -225.89379039 177.43119905 -220.76171875 173.38671875 C-219.02010212 172.01582318 -217.27612115 170.64800009 -215.53125 169.28125 C-210.18002107 165.08792019 -204.84215746 160.88057244 -199.54492188 156.61914062 C-193.61328649 151.84763582 -187.62665005 147.16460272 -181.5625 142.5625 C-175.27538217 137.79001572 -169.12158029 132.88171826 -163.01977539 127.87524414 C-157.56004626 123.41294618 -151.97503219 119.13317558 -146.35546875 114.875 C-141.49127417 111.17572222 -136.72411368 107.37619584 -132 103.5 C-126.58126668 99.05385984 -121.08662372 94.73323549 -115.5 90.5 C-109.13964379 85.68029249 -102.91338906 80.72323168 -96.74047852 75.66625977 C-92.68974809 72.35412406 -88.598721 69.10959928 -84.4375 65.9375 C-79.82130486 62.41715438 -75.27053089 58.82966187 -70.75 55.1875 C-65.41710081 50.89327995 -60.01719909 46.70074039 -54.5625 42.5625 C-48.95652677 38.30721833 -43.44161787 33.96347026 -38 29.5 C-30.47707167 23.3320177 -22.77773179 17.41696272 -15.02636719 11.54003906 C-11.81955458 9.10286148 -8.62818265 6.64573454 -5.4375 4.1875 C-4.88296143 3.76057861 -4.32842285 3.33365723 -3.75708008 2.89379883 C-2.50453169 1.92944383 -1.25223331 0.9647641 0 0 Z " fill="#F15A24" transform="translate(332,273)"/>
<path d="M0 0 C14.52 0 29.04 0 44 0 C44.27097309 25.92135573 44.49198339 51.84156337 44.62174606 77.7639761 C44.68360092 89.80044221 44.76791516 101.83596536 44.90527344 113.87182617 C45.02495082 124.36342804 45.10231463 134.85434702 45.12906194 145.34661251 C45.14469596 150.90168338 45.18138132 156.45480081 45.26876068 162.00924492 C45.35039159 167.24080252 45.37530671 172.46960818 45.35729218 177.70174217 C45.36058601 179.61866991 45.38436114 181.53569228 45.4304657 183.45206833 C45.75327071 197.56538112 45.75327071 197.56538112 42.81424618 201.64655614 C39.6303779 204.82622548 35.96602024 206.8946827 32 209 C30.7912165 209.87455056 29.59935954 210.77402475 28.44140625 211.71484375 C26.40154325 213.28971763 24.36114606 214.86388526 22.3203125 216.4375 C21.50868652 217.06398438 21.50868652 217.06398438 20.68066406 217.703125 C17.76824596 219.95047609 14.85287208 222.19398321 11.9375 224.4375 C10.89464844 225.24058594 9.85179687 226.04367187 8.77734375 226.87109375 C7.86082031 227.57363281 6.94429687 228.27617187 6 229 C5.25878906 229.58910156 4.51757812 230.17820312 3.75390625 230.78515625 C2 232 2 232 0 232 C0 155.44 0 78.88 0 0 Z " fill="#050559" transform="translate(128,157)"/>
<path d="M0 0 C14.52 0 29.04 0 44 0 C44.38464114 18.02940057 44.69739214 36.05526977 44.88080692 54.08764172 C44.96825613 62.46153926 45.08732678 70.83269649 45.2824707 79.20483398 C45.45260041 86.50732055 45.56174287 93.80782252 45.59950441 101.11223584 C45.62156486 104.97668564 45.67287249 108.83546179 45.79741096 112.69808006 C46.52323655 136.10678441 46.52323655 136.10678441 42.35905075 142.53189468 C38.49950521 146.63368841 34.11809 149.36962651 29.11192131 151.87639809 C25.8392122 153.61757196 23.12931305 155.85854685 20.25 158.1875 C19.2290625 158.97253906 18.208125 159.75757813 17.15625 160.56640625 C14.88197756 162.31996037 12.61133515 164.07769139 10.34375 165.83984375 C9.74272461 166.30559814 9.14169922 166.77135254 8.52246094 167.2512207 C7.36271068 168.15010703 6.20444441 169.05091209 5.04785156 169.95385742 C1.1125082 173 1.1125082 173 0 173 C0 115.91 0 58.82 0 0 Z " fill="#1432A5" transform="translate(263,113)"/>
<path d="M0 0 C14.52 0 29.04 0 44 0 C44.20342322 15.11660532 44.36909948 30.23259056 44.46630955 45.35021973 C44.51265286 52.3702099 44.57579335 59.38928729 44.67895508 66.40869141 C44.7784882 73.18444441 44.83057643 79.95924914 44.85389519 86.73568726 C44.87051002 89.31935542 44.9029563 91.90297238 44.95157051 94.48623657 C45.01703094 98.10914646 45.02589719 101.72815527 45.02172852 105.3515625 C45.054086 106.4168367 45.08644348 107.4821109 45.11978149 108.57966614 C45.06423061 113.04930782 44.91733156 115.87366999 42.03480339 119.41293335 C39.77430104 121.44530455 37.48160388 123.24791934 35 125 C33.99453125 125.79148437 32.9890625 126.58296875 31.953125 127.3984375 C31.06109375 128.05070313 30.1690625 128.70296875 29.25 129.375 C24.90501662 132.58530619 20.59045369 135.82636709 16.3125 139.125 C15.77109375 139.54168945 15.2296875 139.95837891 14.671875 140.38769531 C10.62873164 143.50367015 6.61095606 146.65117714 2.609375 149.8203125 C1 151 1 151 0 151 C0 101.17 0 51.34 0 0 Z " fill="#1432A5" transform="translate(202,182)"/>
</svg>
